<?xml version="1.0" encoding="UTF-8" standalone="no"?>
<!-- Created with Inkscape (http://www.inkscape.org/) -->

<svg
   width="60mm"
   height="60mm"
   viewBox="0 0 60 60"
   version="1.1"
   id="svg1">
  <defs
     id="defs1">
    <marker
       style="overflow:visible"
       id="ArrowWide"
       refX="0"
       refY="0"
       orient="auto-start-reverse"
       markerWidth="1"
       markerHeight="1"
       viewBox="0 0 1 1"
       preserveAspectRatio="xMidYMid">
      <path
         style="fill:none;stroke:context-stroke;stroke-width:1;stroke-linecap:butt"
         d="M 3,-3 0,0 3,3"
         transform="rotate(180,0.125,0)"
         id="path1" />
    </marker>
  </defs>
  <g
     id="layer1">
    <path
       style="fill:#ffffff;fill-opacity:1;stroke:none;stroke-width:5.2909;stroke-linecap:round;paint-order:stroke fill markers"
       id="rect2-6"
       width="80"
       height="80"
       x="-89.525009"
       y="9.3984156"
       transform="matrix(-0.75000001,0,0,0.75000001,-7.1437574,-7.0488122)"
       d="M -79.525009,9.3984156 H -19.525009 A 10,10 45 0 1 -9.5250092,19.398416 V 79.398416 A 10,10 135 0 1 -19.525009,89.398416 H -79.525009 A 10,10 45 0 1 -89.525009,79.398416 V 19.398416 A 10,10 135 0 1 -79.525009,9.3984156 Z" />
    <path
       style="display:inline;fill:#000000;fill-opacity:1;stroke:#000000;stroke-width:7.8088;stroke-linecap:square;stroke-dasharray:none;stroke-opacity:1;marker-end:url(#ArrowWide);paint-order:stroke fill markers"
       d="M 7.5313622,30 C 21.320632,30 35.109912,30 48.899182,30"
       id="path8" />
  </g>
</svg>
