<?xml version="1.0" encoding="UTF-8" standalone="no"?>
<!-- Created with Inkscape (http://www.inkscape.org/) -->

<svg
   width="399.99982mm"
   height="80.000099mm"
   viewBox="0 0 399.99982 80.000099"
   version="1.1"
   id="svg1"
   xml:space="preserve"><defs
     id="defs1"><marker
       style="overflow:visible"
       id="ArrowWide"
       refX="0"
       refY="0"
       orient="auto-start-reverse"
       markerWidth="1"
       markerHeight="1"
       viewBox="0 0 1 1"
       preserveAspectRatio="xMidYMid"><path
         style="fill:none;stroke:context-stroke;stroke-width:1;stroke-linecap:butt"
         d="M 3,-3 0,0 3,3"
         transform="rotate(180,0.125,0)"
         id="path1" /></marker></defs><g
     id="g8"
     transform="translate(-8.4819338e-5,4.7867388e-5)"><path
       style="fill:#000000;fill-opacity:1;stroke:#000000;stroke-width:9.99998;stroke-linecap:round;stroke-dasharray:none;stroke-opacity:1;paint-order:stroke fill markers"
       id="rect1"
       width="400"
       height="100"
       x="-1.4210855e-14"
       y="-3.5527137e-15"
       d="M 10,0 H 390 A 10,10 45 0 1 400,10 V 90 A 10,10 135 0 1 390,100 H 10 A 10,10 45 0 1 0,90 V 10 A 10,10 135 0 1 10,0 Z"
       transform="matrix(0.97560939,0,0,0.72727373,4.878122,3.6363135)" /><path
       style="fill:#ffffff;fill-opacity:1;stroke:none;stroke-width:5.2909;stroke-linecap:round;paint-order:stroke fill markers"
       id="rect2"
       width="80"
       height="80"
       x="-89.525009"
       y="9.3984156"
       transform="matrix(-0.75000001,0,0,0.75000001,4.2333357,2.3496039)"
       d="M -79.525009,9.3984156 H -19.525009 A 10,10 45 0 1 -9.5250092,19.398416 V 79.398416 A 10,10 135 0 1 -19.525009,89.398416 H -79.525009 A 10,10 45 0 1 -89.525009,79.398416 V 19.398416 A 10,10 135 0 1 -79.525009,9.3984156 Z" /><path
       style="display:inline;fill:#ffffff;fill-opacity:1;stroke:none;stroke-width:5.2909;stroke-linecap:round;paint-order:stroke fill markers"
       id="rect2-6"
       width="80"
       height="80"
       x="-89.525009"
       y="9.3984156"
       transform="matrix(-0.75000001,0,0,0.75000001,321.46875,2.7407711)"
       d="M -79.525009,9.3984156 H -19.525009 A 10,10 45 0 1 -9.5250092,19.398416 V 79.398416 A 10,10 135 0 1 -19.525009,89.398416 H -79.525009 A 10,10 45 0 1 -89.525009,79.398416 V 19.398416 A 10,10 135 0 1 -79.525009,9.3984156 Z" /></g><path
     style="font-size:67.8449px;font-family:Bahnschrift;-inkscape-font-specification:'Bahnschrift, Normal';fill:#ffffff;stroke-width:0.540619;stroke-linecap:round;paint-order:stroke fill markers"
     d="M 105.09573,48.093318 117.78336,12.637054 H 123.45863 V 66.338522 H 117.54566 V 26.117822 L 117.84279,28.481572 107.20538,58.877932 H 102.98608 L 92.348666,29.220245 92.645806,26.117822 V 66.338522 H 86.732831 V 12.637054 H 92.408097 Z M 140.217,12.637054 V 66.338522 H 134.15546 V 12.637054 Z M 163.89861,66.892526 Q 160.74898,66.892526 157.95592,66.153854 155.19257,65.415181 152.75607,63.937837 150.34928,62.460492 148.23963,60.244476 V 60.244476 L 152.01324,54.482833 V 54.482833 Q 154.47945,57.142053 157.45079,58.471663 160.42214,59.801273 163.89861,59.801273 168.59333,59.801273 171.1784,57.62219 173.76347,55.443107 173.76347,51.528144 V 51.49121 Q 173.76347,48.425721 172.45607,46.800642 171.14869,45.175563 169.00932,44.399958 166.89966,43.587418 164.37402,43.070348 161.93752,42.553277 159.4416,41.851539 156.97538,41.1498 154.89544,39.672455 152.8155,38.158178 151.53782,35.351223 150.28986,32.544269 150.28986,27.853702 V 27.816767 Q 150.28986,20.319245 154.30117,16.219615 158.31249,12.08305 165.62198,12.08305 169.09846,12.08305 172.42636,13.486527 175.75427,14.853071 178.90389,17.696958 V 17.696958 L 175.45713,23.680203 V 23.680203 Q 172.99092,21.39032 170.5247,20.282312 168.0882,19.174303 165.62198,19.174303 161.19468,19.174303 158.72847,21.39032 156.29197,23.569403 156.29197,27.595166 V 27.632099 Q 156.29197,30.660655 157.71822,32.2488 159.14446,33.836945 161.43239,34.612552 163.75004,35.351223 166.39454,36.016028 168.77161,36.606967 171.14869,37.45644 173.52576,38.268978 175.45713,39.857123 177.41822,41.408336 178.57704,44.141422 179.76558,46.874509 179.76558,51.269609 V 51.343476 Q 179.76558,58.767132 175.6057,62.829828 171.44582,66.892526 163.89861,66.892526 Z M 200.1787,66.892526 Q 197.02908,66.892526 194.23602,66.153854 191.47267,65.415181 189.03617,63.937837 186.62938,62.460492 184.51973,60.244476 V 60.244476 L 188.29334,54.482833 V 54.482833 Q 190.75955,57.142053 193.73089,58.471663 196.70224,59.801273 200.1787,59.801273 204.87343,59.801273 207.45849,57.62219 210.04357,55.443107 210.04357,51.528144 V 51.49121 Q 210.04357,48.425721 208.73617,46.800642 207.42879,45.175563 205.28941,44.399958 203.17976,43.587418 200.65412,43.070348 198.21762,42.553277 195.72169,41.851539 193.25548,41.1498 191.17553,39.672455 189.09559,38.158178 187.81792,35.351223 186.56996,32.544269 186.56996,27.853702 V 27.816767 Q 186.56996,20.319245 190.58126,16.219615 194.59258,12.08305 201.90208,12.08305 205.37856,12.08305 208.70646,13.486527 212.03436,14.853071 215.18399,17.696958 V 17.696958 L 211.73723,23.680203 V 23.680203 Q 209.27102,21.39032 206.8048,20.282312 204.3683,19.174303 201.90208,19.174303 197.47478,19.174303 195.00857,21.39032 192.57207,23.569403 192.57207,27.595166 V 27.632099 Q 192.57207,30.660655 193.99831,32.2488 195.42456,33.836945 197.71249,34.612552 200.03014,35.351223 202.67463,36.016028 205.05171,36.606967 207.42879,37.45644 209.80586,38.268978 211.73723,39.857123 213.69832,41.408336 214.85715,44.141422 216.04568,46.874509 216.04568,51.269609 V 51.343476 Q 216.04568,58.767132 211.8858,62.829828 207.72592,66.892526 200.1787,66.892526 Z M 230.12984,12.637054 V 66.338522 H 224.0683 V 12.637054 Z M 255.11884,66.892526 Q 250.54297,66.892526 247.12592,64.454908 243.70888,61.980355 241.80722,57.511389 239.93527,53.042422 239.93527,47.096112 V 31.879464 Q 239.93527,25.89622 241.80722,21.464186 243.70888,16.99522 247.12592,14.557602 250.54297,12.08305 255.11884,12.08305 259.69471,12.08305 263.11175,14.557602 266.52879,16.99522 268.40074,21.464186 270.3024,25.89622 270.3024,31.879464 V 47.096112 Q 270.3024,53.042422 268.40074,57.511389 266.52879,61.980355 263.11175,64.454908 259.69471,66.892526 255.11884,66.892526 Z M 255.11884,59.46887 Q 259.18958,59.46887 261.62608,56.144845 264.0923,52.820821 264.0923,47.354646 V 31.62093 Q 264.0923,26.117822 261.62608,22.83073 259.18958,19.506706 255.11884,19.506706 251.07781,19.506706 248.61159,22.83073 246.14538,26.117822 246.14538,31.62093 V 47.354646 Q 246.14538,52.820821 248.61159,56.144845 251.07781,59.46887 255.11884,59.46887 Z M 279.51356,66.301587 V 12.637054 H 285.01055 L 306.1368,54.150431 305.42368,55.110704 V 12.637054 H 311.42579 V 66.301587 H 305.86938 L 284.80256,25.416084 285.51568,24.455809 V 66.301587 Z"
     id="text2"
     aria-label="MISSION" /><g
     id="g10"
     transform="translate(-8.4819338e-5,4.7867388e-5)"><rect
       style="fill:#000000;fill-opacity:1;stroke:none;stroke-width:0.0378681;stroke-linecap:round;stroke-dasharray:none;stroke-opacity:1;paint-order:stroke fill markers"
       id="rect3-0"
       width="23.078625"
       height="23.078625"
       x="62.622078"
       y="-47.848297"
       transform="matrix(0.4841261,0.87499824,-0.4841261,0.87499824,0,0)" /><path
       d="M 16.011096,56.720329 V 49.112175 H 17.07854 V 56.720329 Z M 16.52912,56.720329 V 55.705211 H 20.898315 V 56.720329 Z M 16.52912,53.449974 V 52.434856 H 20.322733 V 53.449974 Z M 16.52912,50.127293 V 49.112175 H 20.898315 V 50.127293 Z M 25.49251,56.720329 23.870414,54.250557 21.871573,51.288923 H 23.059366 L 24.618671,53.722068 26.67507,56.720329 Z M 21.787852,56.720329 23.839018,53.722068 24.35181,54.70579 22.970412,56.720329 Z M 24.665764,54.219162 24.215763,53.214508 25.403556,51.288923 H 26.591349 Z M 27.852398,58.928473 V 51.288923 H 28.919842 V 58.928473 Z M 30.285542,56.798818 Q 29.777983,56.798818 29.401238,56.55812 29.024494,56.312189 28.846586,55.867421 L 28.919842,54.731953 Q 28.919842,55.082535 29.045424,55.328466 29.171005,55.574397 29.406471,55.705211 29.647169,55.836025 29.987286,55.836025 30.515775,55.836025 30.803567,55.516839 31.096591,55.192419 31.096591,54.606372 V 53.429044 Q 31.096591,52.832531 30.803567,52.502879 30.515775,52.173227 29.987286,52.173227 29.647169,52.173227 29.406471,52.298809 29.171005,52.424391 29.045424,52.665089 28.919842,52.905787 28.919842,53.251136 L 28.809958,52.204623 Q 29.055889,51.728459 29.453564,51.472063 29.851239,51.210435 30.337868,51.210435 31.211707,51.210435 31.687871,51.79125 32.164035,52.366832 32.164035,53.423811 V 54.606372 Q 32.164035,55.647653 31.672173,56.223235 31.180312,56.798818 30.285542,56.798818 Z M 35.90532,56.798818 Q 34.769853,56.798818 34.147177,56.165677 33.524502,55.532536 33.524502,54.365674 V 53.753463 Q 33.524502,52.539507 34.121015,51.874971 34.72276,51.210435 35.811134,51.210435 36.836718,51.210435 37.396602,51.963925 37.96172,52.717414 37.96172,54.077882 V 54.433697 H 34.298922 V 53.575556 H 36.946601 V 53.575556 Q 36.899508,52.916252 36.601252,52.54474 36.308228,52.173227 35.811134,52.173227 35.209389,52.173227 34.874504,52.570903 34.53962,52.968578 34.53962,53.695905 V 54.386604 Q 34.53962,55.061605 34.895435,55.422652 35.256482,55.7837 35.90532,55.7837 36.22974,55.7837 36.548926,55.652885 36.868113,55.522071 37.119276,55.286606 V 55.286606 L 37.82044,55.98777 V 55.98777 Q 37.417533,56.37498 36.915206,56.589515 36.412879,56.798818 35.90532,56.798818 Z M 39.426838,56.720329 V 51.288923 H 40.494282 V 56.720329 Z M 42.414635,52.576135 Q 42.273355,52.40346 42.05882,52.314507 41.844285,52.225553 41.561726,52.225553 41.054167,52.225553 40.771608,52.508112 40.494282,52.785438 40.494282,53.282532 L 40.384398,52.236018 Q 40.630329,51.754622 41.028004,51.482528 41.430912,51.210435 41.912308,51.210435 42.283821,51.210435 42.582077,51.320319 42.885566,51.42497 43.110566,51.634273 Z M 45.412897,56.746492 Q 44.743128,56.746492 44.439639,56.37498 44.141383,56.003467 44.141383,55.307536 V 49.708688 H 45.208827 V 55.318001 Q 45.208827,55.511606 45.287315,55.62149 45.365804,55.731374 45.517548,55.731374 H 46.03034 V 56.746492 Z M 43.581498,52.251716 V 51.288923 H 46.03034 V 52.251716 Z M 49.415811,56.798818 Q 48.693717,56.798818 48.102437,56.589515 47.516389,56.37498 47.050691,55.951142 V 55.951142 L 47.683831,55.171489 V 55.171489 Q 48.1286,55.506373 48.55767,55.673816 48.991973,55.841258 49.415811,55.841258 50.048952,55.841258 50.362906,55.647653 50.682093,55.448815 50.682093,55.056373 50.682093,54.752884 50.467558,54.627302 50.258255,54.50172 49.912905,54.465092 49.572789,54.423232 49.180346,54.397069 48.850694,54.370906 48.526275,54.31858 48.201856,54.261022 47.934995,54.119743 47.668134,53.973231 47.505924,53.690672 47.348947,53.408114 47.348947,52.93195 47.348947,52.068576 47.877436,51.639505 48.405926,51.210435 49.452439,51.210435 50.090813,51.210435 50.640232,51.38311 51.189652,51.555784 51.671048,51.911599 V 51.911599 L 51.027443,52.691252 V 52.691252 Q 50.619302,52.429623 50.221627,52.298809 49.829184,52.167995 49.452439,52.167995 48.908252,52.167995 48.636159,52.356367 48.364065,52.539507 48.364065,52.91102 48.364065,53.15695 48.552438,53.266834 48.74081,53.371486 49.049532,53.402881 49.358253,53.434276 49.714068,53.460439 50.054185,53.481369 50.399534,53.538928 50.750116,53.591253 51.04314,53.74823 51.336164,53.905208 51.514071,54.213929 51.691979,54.522651 51.691979,55.056373 51.691979,55.930211 51.121629,56.364515 50.556511,56.798818 49.415811,56.798818 Z M 58.551876,56.798818 Q 57.74606,56.798818 57.144315,56.453468 56.54257,56.102886 56.207685,55.469745 55.878033,54.836605 55.878033,53.994161 V 51.838343 Q 55.878033,50.990667 56.207685,50.362759 56.54257,49.729618 57.144315,49.384268 57.74606,49.033686 58.551876,49.033686 59.357691,49.033686 59.959437,49.384268 60.561182,49.729618 60.890834,50.362759 61.225718,50.990667 61.225718,51.838343 V 53.994161 Q 61.225718,54.836605 60.890834,55.469745 60.561182,56.102886 59.959437,56.453468 59.357691,56.798818 58.551876,56.798818 Z M 58.551876,55.747072 Q 59.268738,55.747072 59.697808,55.27614 60.132112,54.805209 60.132112,54.030789 V 51.801715 Q 60.132112,51.022062 59.697808,50.556364 59.268738,50.085433 58.551876,50.085433 57.840247,50.085433 57.405943,50.556364 56.97164,51.022062 56.97164,51.801715 V 54.030789 Q 56.97164,54.805209 57.405943,55.27614 57.840247,55.747072 58.551876,55.747072 Z M 62.847813,56.720329 V 51.288923 H 63.915257 V 56.720329 Z M 66.144331,56.720329 V 53.429044 Q 66.144331,52.853461 65.846075,52.539507 65.553051,52.225553 65.008864,52.225553 64.485607,52.225553 64.197816,52.502879 63.915257,52.780205 63.915257,53.282532 L 63.805373,52.236018 Q 64.056536,51.744157 64.459444,51.477296 64.867584,51.210435 65.359446,51.210435 66.24375,51.210435 66.725146,51.79125 67.211775,52.366832 67.211775,53.423811 V 56.720329 Z M 69.901318,49.112175 V 55.318001 Q 69.901318,55.511606 69.985039,55.62149 70.073993,55.731374 70.23097,55.731374 H 70.733296 V 56.746492 H 70.105388 Q 69.503643,56.746492 69.168758,56.369747 68.833874,55.993002 68.833874,55.307536 V 49.112175 Z M 75.081561,51.288923 H 76.169935 L 73.85714,57.991843 Q 73.663534,58.551728 73.297255,58.766264 72.930975,58.986031 72.292602,58.986031 H 72.078066 V 57.960448 H 72.292602 Q 72.590858,57.960448 72.763533,57.840099 72.94144,57.71975 73.072254,57.426726 Z M 73.527488,57.165098 71.361204,51.288923 H 72.449579 L 74.118768,56.0087 Z"
       id="text5"
       style="font-size:10.7163px;font-family:Bahnschrift;-inkscape-font-specification:'Bahnschrift, Normal';stroke-width:1.03077;stroke-linecap:round;paint-order:stroke fill markers"
       transform="scale(0.89091424,1.1224425)"
       aria-label="Experts Only" /><rect
       style="fill:#000000;fill-opacity:1;stroke:none;stroke-width:0.0378681;stroke-linecap:round;stroke-dasharray:none;stroke-opacity:1;paint-order:stroke fill markers"
       id="rect8"
       width="23.078625"
       height="23.078625"
       x="35.979366"
       y="-21.205559"
       transform="matrix(0.4841261,0.87499824,-0.4841261,0.87499824,0,0)" /></g><path
     style="display:none;fill:#000000;fill-opacity:1;stroke:#000000;stroke-width:7.8088;stroke-linecap:square;stroke-dasharray:none;stroke-opacity:1;marker-end:url(#ArrowWide);paint-order:stroke fill markers"
     d="M 337.03165,40.000048 C 350.82092,40.000048 364.6102,40.000048 378.39947,40.000048"
     id="path8" /></svg>
