<?xml version="1.0" encoding="UTF-8" standalone="no"?>
<!-- Created with Inkscape (http://www.inkscape.org/) -->

<svg
   width="400mm"
   height="80mm"
   viewBox="0 0 400 80"
   version="1.1"
   id="svg1"
   xml:space="preserve"><defs
     id="defs1"><marker
       style="overflow:visible"
       id="ArrowWide"
       refX="0"
       refY="0"
       orient="auto-start-reverse"
       markerWidth="1"
       markerHeight="1"
       viewBox="0 0 1 1"
       preserveAspectRatio="xMidYMid"><path
         style="fill:none;stroke:context-stroke;stroke-width:1;stroke-linecap:butt"
         d="M 3,-3 0,0 3,3"
         transform="rotate(180,0.125,0)"
         id="path1" /></marker></defs><g
     id="g8"
     transform="translate(-8.4819338e-5,4.7867388e-5)"><path
       style="fill:#000000;fill-opacity:1;stroke:#000000;stroke-width:9.99998;stroke-linecap:round;stroke-dasharray:none;stroke-opacity:1;paint-order:stroke fill markers"
       id="rect1"
       width="400"
       height="100"
       x="-1.4210855e-14"
       y="-3.5527137e-15"
       d="M 10,0 H 390 A 10,10 45 0 1 400,10 V 90 A 10,10 135 0 1 390,100 H 10 A 10,10 45 0 1 0,90 V 10 A 10,10 135 0 1 10,0 Z"
       transform="matrix(0.97560939,0,0,0.72727373,4.878122,3.6363135)" /><path
       style="fill:#ffffff;fill-opacity:1;stroke:none;stroke-width:5.2909;stroke-linecap:round;paint-order:stroke fill markers"
       id="rect2"
       width="80"
       height="80"
       x="-89.525009"
       y="9.3984156"
       transform="matrix(-0.75000001,0,0,0.75000001,4.2333357,2.3496039)"
       d="M -79.525009,9.3984156 H -19.525009 A 10,10 45 0 1 -9.5250092,19.398416 V 79.398416 A 10,10 135 0 1 -19.525009,89.398416 H -79.525009 A 10,10 45 0 1 -89.525009,79.398416 V 19.398416 A 10,10 135 0 1 -79.525009,9.3984156 Z" /><path
       style="display:inline;fill:#ffffff;fill-opacity:1;stroke:none;stroke-width:5.2909;stroke-linecap:round;paint-order:stroke fill markers"
       id="rect2-6"
       width="80"
       height="80"
       x="-89.525009"
       y="9.3984156"
       transform="matrix(-0.75000001,0,0,0.75000001,321.46875,2.7407711)"
       d="M -79.525009,9.3984156 H -19.525009 A 10,10 45 0 1 -9.5250092,19.398416 V 79.398416 A 10,10 135 0 1 -19.525009,89.398416 H -79.525009 A 10,10 45 0 1 -89.525009,79.398416 V 19.398416 A 10,10 135 0 1 -79.525009,9.3984156 Z" /></g><path
     style="font-size:67.8449px;font-family:Bahnschrift;-inkscape-font-specification:'Bahnschrift, Normal';fill:#ffffff;stroke-width:0.540619;stroke-linecap:round;paint-order:stroke fill markers"
     d="M 105.09573,48.093318 117.78336,12.637054 H 123.45863 V 66.338522 H 117.54566 V 26.117822 L 117.84279,28.481572 107.20538,58.877932 H 102.98608 L 92.348666,29.220245 92.645806,26.117822 V 66.338522 H 86.732831 V 12.637054 H 92.408097 Z M 140.217,12.637054 V 66.338522 H 134.15546 V 12.637054 Z M 163.89861,66.892526 Q 160.74898,66.892526 157.95592,66.153854 155.19257,65.415181 152.75607,63.937837 150.34928,62.460492 148.23963,60.244476 V 60.244476 L 152.01324,54.482833 V 54.482833 Q 154.47945,57.142053 157.45079,58.471663 160.42214,59.801273 163.89861,59.801273 168.59333,59.801273 171.1784,57.62219 173.76347,55.443107 173.76347,51.528144 V 51.49121 Q 173.76347,48.425721 172.45607,46.800642 171.14869,45.175563 169.00932,44.399958 166.89966,43.587418 164.37402,43.070348 161.93752,42.553277 159.4416,41.851539 156.97538,41.1498 154.89544,39.672455 152.8155,38.158178 151.53782,35.351223 150.28986,32.544269 150.28986,27.853702 V 27.816767 Q 150.28986,20.319245 154.30117,16.219615 158.31249,12.08305 165.62198,12.08305 169.09846,12.08305 172.42636,13.486527 175.75427,14.853071 178.90389,17.696958 V 17.696958 L 175.45713,23.680203 V 23.680203 Q 172.99092,21.39032 170.5247,20.282312 168.0882,19.174303 165.62198,19.174303 161.19468,19.174303 158.72847,21.39032 156.29197,23.569403 156.29197,27.595166 V 27.632099 Q 156.29197,30.660655 157.71822,32.2488 159.14446,33.836945 161.43239,34.612552 163.75004,35.351223 166.39454,36.016028 168.77161,36.606967 171.14869,37.45644 173.52576,38.268978 175.45713,39.857123 177.41822,41.408336 178.57704,44.141422 179.76558,46.874509 179.76558,51.269609 V 51.343476 Q 179.76558,58.767132 175.6057,62.829828 171.44582,66.892526 163.89861,66.892526 Z M 200.1787,66.892526 Q 197.02908,66.892526 194.23602,66.153854 191.47267,65.415181 189.03617,63.937837 186.62938,62.460492 184.51973,60.244476 V 60.244476 L 188.29334,54.482833 V 54.482833 Q 190.75955,57.142053 193.73089,58.471663 196.70224,59.801273 200.1787,59.801273 204.87343,59.801273 207.45849,57.62219 210.04357,55.443107 210.04357,51.528144 V 51.49121 Q 210.04357,48.425721 208.73617,46.800642 207.42879,45.175563 205.28941,44.399958 203.17976,43.587418 200.65412,43.070348 198.21762,42.553277 195.72169,41.851539 193.25548,41.1498 191.17553,39.672455 189.09559,38.158178 187.81792,35.351223 186.56996,32.544269 186.56996,27.853702 V 27.816767 Q 186.56996,20.319245 190.58126,16.219615 194.59258,12.08305 201.90208,12.08305 205.37856,12.08305 208.70646,13.486527 212.03436,14.853071 215.18399,17.696958 V 17.696958 L 211.73723,23.680203 V 23.680203 Q 209.27102,21.39032 206.8048,20.282312 204.3683,19.174303 201.90208,19.174303 197.47478,19.174303 195.00857,21.39032 192.57207,23.569403 192.57207,27.595166 V 27.632099 Q 192.57207,30.660655 193.99831,32.2488 195.42456,33.836945 197.71249,34.612552 200.03014,35.351223 202.67463,36.016028 205.05171,36.606967 207.42879,37.45644 209.80586,38.268978 211.73723,39.857123 213.69832,41.408336 214.85715,44.141422 216.04568,46.874509 216.04568,51.269609 V 51.343476 Q 216.04568,58.767132 211.8858,62.829828 207.72592,66.892526 200.1787,66.892526 Z M 230.12984,12.637054 V 66.338522 H 224.0683 V 12.637054 Z M 255.11884,66.892526 Q 250.54297,66.892526 247.12592,64.454908 243.70888,61.980355 241.80722,57.511389 239.93527,53.042422 239.93527,47.096112 V 31.879464 Q 239.93527,25.89622 241.80722,21.464186 243.70888,16.99522 247.12592,14.557602 250.54297,12.08305 255.11884,12.08305 259.69471,12.08305 263.11175,14.557602 266.52879,16.99522 268.40074,21.464186 270.3024,25.89622 270.3024,31.879464 V 47.096112 Q 270.3024,53.042422 268.40074,57.511389 266.52879,61.980355 263.11175,64.454908 259.69471,66.892526 255.11884,66.892526 Z M 255.11884,59.46887 Q 259.18958,59.46887 261.62608,56.144845 264.0923,52.820821 264.0923,47.354646 V 31.62093 Q 264.0923,26.117822 261.62608,22.83073 259.18958,19.506706 255.11884,19.506706 251.07781,19.506706 248.61159,22.83073 246.14538,26.117822 246.14538,31.62093 V 47.354646 Q 246.14538,52.820821 248.61159,56.144845 251.07781,59.46887 255.11884,59.46887 Z M 279.51356,66.301587 V 12.637054 H 285.01055 L 306.1368,54.150431 305.42368,55.110704 V 12.637054 H 311.42579 V 66.301587 H 305.86938 L 284.80256,25.416084 285.51568,24.455809 V 66.301587 Z"
     id="text2"
     aria-label="MISSION" /><g
     id="g9"
     transform="translate(-8.4819338e-5,4.7867388e-5)"><rect
       style="fill:#000000;fill-opacity:1;stroke:none;stroke-width:0.0378681;stroke-linecap:round;stroke-dasharray:none;stroke-opacity:1;paint-order:stroke fill markers"
       id="rect3-0"
       width="23.078625"
       height="23.078625"
       x="62.622078"
       y="-47.848297"
       transform="matrix(0.4841261,0.87499824,-0.4841261,0.87499824,0,0)" /><text
       xml:space="preserve"
       style="font-style:normal;font-variant:normal;font-weight:normal;font-stretch:normal;font-size:10.7163px;font-family:Bahnschrift;-inkscape-font-specification:'Bahnschrift, Normal';font-variant-ligatures:normal;font-variant-caps:normal;font-variant-numeric:normal;font-variant-east-asian:normal;fill:#000000;fill-opacity:1;stroke:none;stroke-width:1.03077;stroke-linecap:round;stroke-dasharray:none;stroke-opacity:1;paint-order:stroke fill markers"
       x="15.069234"
       y="56.720329"
       id="text5"
       transform="scale(0.89091425,1.1224425)"><tspan
         id="tspan5"
         style="fill:#000000;fill-opacity:1;stroke:none;stroke-width:1.03077"
         x="15.069234"
         y="56.720329">Experts Only</tspan></text><rect
       style="fill:#000000;fill-opacity:1;stroke:none;stroke-width:0.0378681;stroke-linecap:round;stroke-dasharray:none;stroke-opacity:1;paint-order:stroke fill markers"
       id="rect8"
       width="23.078625"
       height="23.078625"
       x="35.979366"
       y="-21.205559"
       transform="matrix(0.4841261,0.87499824,-0.4841261,0.87499824,0,0)" /></g><path
     style="display:none;fill:#000000;fill-opacity:1;stroke:#000000;stroke-width:7.8088;stroke-linecap:square;stroke-dasharray:none;stroke-opacity:1;marker-end:url(#ArrowWide);paint-order:stroke fill markers"
     d="M 337.03165,40.000048 C 350.82092,40.000048 364.6102,40.000048 378.39947,40.000048"
     id="path8" /></svg>
