<?xml version="1.0" encoding="UTF-8" standalone="no"?>
<!-- Created with Inkscape (http://www.inkscape.org/) -->

<svg
   width="399.99982mm"
   height="80.000099mm"
   viewBox="0 0 399.99982 80.000099"
   version="1.1"
   id="svg1"
   xml:space="preserve"><defs
     id="defs1"><marker
       style="overflow:visible"
       id="ArrowWide"
       refX="0"
       refY="0"
       orient="auto-start-reverse"
       markerWidth="1"
       markerHeight="1"
       viewBox="0 0 1 1"
       preserveAspectRatio="xMidYMid"><path
         style="fill:none;stroke:context-stroke;stroke-width:1;stroke-linecap:butt"
         d="M 3,-3 0,0 3,3"
         transform="rotate(180,0.125,0)"
         id="path1" /></marker></defs><g
     id="g8"
     transform="translate(-8.4819338e-5,4.7867388e-5)"><path
       style="fill:#000000;fill-opacity:1;stroke:#000000;stroke-width:9.99998;stroke-linecap:round;stroke-dasharray:none;stroke-opacity:1;paint-order:stroke fill markers"
       id="rect1"
       width="400"
       height="100"
       x="-1.4210855e-14"
       y="-3.5527137e-15"
       d="M 10,0 H 390 A 10,10 45 0 1 400,10 V 90 A 10,10 135 0 1 390,100 H 10 A 10,10 45 0 1 0,90 V 10 A 10,10 135 0 1 10,0 Z"
       transform="matrix(0.97560939,0,0,0.72727373,4.878122,3.6363135)" /><path
       style="fill:#ffffff;fill-opacity:1;stroke:none;stroke-width:5.2909;stroke-linecap:round;paint-order:stroke fill markers"
       id="rect2"
       width="80"
       height="80"
       x="-89.525009"
       y="9.3984156"
       transform="matrix(-0.75000001,0,0,0.75000001,4.2333357,2.3496039)"
       d="M -79.525009,9.3984156 H -19.525009 A 10,10 45 0 1 -9.5250092,19.398416 V 79.398416 A 10,10 135 0 1 -19.525009,89.398416 H -79.525009 A 10,10 45 0 1 -89.525009,79.398416 V 19.398416 A 10,10 135 0 1 -79.525009,9.3984156 Z" /><path
       style="fill:#ffffff;fill-opacity:1;stroke:none;stroke-width:5.2909;stroke-linecap:round;paint-order:stroke fill markers"
       id="rect2-6"
       width="80"
       height="80"
       x="-89.525009"
       y="9.3984156"
       transform="matrix(-0.75000001,0,0,0.75000001,321.46875,2.7407711)"
       d="M -79.525009,9.3984156 H -19.525009 A 10,10 45 0 1 -9.5250092,19.398416 V 79.398416 A 10,10 135 0 1 -19.525009,89.398416 H -79.525009 A 10,10 45 0 1 -89.525009,79.398416 V 19.398416 A 10,10 135 0 1 -79.525009,9.3984156 Z" /></g><text
     xml:space="preserve"
     style="font-size:67.8449px;font-family:'Segoe Print';-inkscape-font-specification:'Segoe Print, Normal';fill:#ffffff;fill-opacity:1;stroke:none;stroke-width:0.540619;stroke-linecap:round;stroke-dasharray:none;paint-order:stroke fill markers"
     x="90.735184"
     y="59.501965"
     id="text2"
     transform="scale(0.89694441,1.1148963)"><tspan
       id="tspan2"
       style="font-style:normal;font-variant:normal;font-weight:normal;font-stretch:normal;font-size:67.8449px;font-family:Bahnschrift;-inkscape-font-specification:'Bahnschrift, Normal';font-variant-ligatures:normal;font-variant-caps:normal;font-variant-numeric:normal;font-variant-east-asian:normal;fill:#ffffff;fill-opacity:1;stroke:none;stroke-width:0.540619;stroke-dasharray:none;stroke-opacity:1"
       x="90.735184"
       y="59.501965">MISSION</tspan></text><g
     id="g9"
     transform="translate(-8.4819338e-5,4.7867388e-5)"><rect
       style="fill:#000000;fill-opacity:1;stroke:none;stroke-width:0.0378681;stroke-linecap:round;stroke-dasharray:none;stroke-opacity:1;paint-order:stroke fill markers"
       id="rect3-0"
       width="23.078625"
       height="23.078625"
       x="62.622078"
       y="-47.848297"
       transform="matrix(0.4841261,0.87499824,-0.4841261,0.87499824,0,0)" /><text
       xml:space="preserve"
       style="font-style:normal;font-variant:normal;font-weight:normal;font-stretch:normal;font-size:10.7163px;font-family:Bahnschrift;-inkscape-font-specification:'Bahnschrift, Normal';font-variant-ligatures:normal;font-variant-caps:normal;font-variant-numeric:normal;font-variant-east-asian:normal;fill:#000000;fill-opacity:1;stroke:none;stroke-width:1.03077;stroke-linecap:round;stroke-dasharray:none;stroke-opacity:1;paint-order:stroke fill markers"
       x="15.069234"
       y="56.720329"
       id="text5"
       transform="scale(0.89091425,1.1224425)"><tspan
         id="tspan5"
         style="fill:#000000;fill-opacity:1;stroke:none;stroke-width:1.03077"
         x="15.069234"
         y="56.720329">Experts Only</tspan></text><rect
       style="fill:#000000;fill-opacity:1;stroke:none;stroke-width:0.0378681;stroke-linecap:round;stroke-dasharray:none;stroke-opacity:1;paint-order:stroke fill markers"
       id="rect8"
       width="23.078625"
       height="23.078625"
       x="35.979366"
       y="-21.205559"
       transform="matrix(0.4841261,0.87499824,-0.4841261,0.87499824,0,0)" /></g><path
     style="display:none;fill:#000000;fill-opacity:1;stroke:#000000;stroke-width:7.8088;stroke-linecap:square;stroke-dasharray:none;stroke-opacity:1;marker-end:url(#ArrowWide);paint-order:stroke fill markers"
     d="M 337.03165,40.000048 C 350.82092,40.000048 364.6102,40.000048 378.39947,40.000048"
     id="path8" /></svg>
